IKResults
version=1
nRows=17
nColumns=40
inDegrees=yes

Units are S.I. units (second, meters, Newtons, ...)
Angles are in degrees.

endheader
time	pelvis_tilt	pelvis_list	pelvis_rotation	pelvis_tx	pelvis_ty	pelvis_tz	hip_flexion_r	hip_adduction_r	hip_rotation_r	knee_angle_r	knee_angle_r_beta	ankle_angle_r	subtalar_angle_r	mtp_angle_r	hip_flexion_l	hip_adduction_l	hip_rotation_l	knee_angle_l	knee_angle_l_beta	ankle_angle_l	subtalar_angle_l	mtp_angle_l	lumbar_extension	lumbar_bending	lumbar_rotation	arm_flex_r	arm_add_r	arm_rot_r	elbow_flex_r	pro_sup_r	wrist_flex_r	wrist_dev_r	arm_flex_l	arm_add_l	arm_rot_l	elbow_flex_l	pro_sup_l	wrist_flex_l	wrist_dev_l
      0.00000000	     15.35080543	     -0.34186239	     -4.30502756	     -0.75841210	      0.92039475	      0.98978998	    -27.32645301	     -1.31062704	     -6.54807899	    -16.38615271	     -0.28599232	     15.55500892	     -7.16057329	     -3.66266807	     10.97919198	      1.11009561	     17.84206931	    -23.15939680	     -0.40420773	      7.34507093	      1.55552272	     -7.30548828	    -23.09908130	     -2.83211206	      5.37384635	     -0.99303165	    -18.91710301	     -3.36837703	     61.99904630	     89.95437384	      0.00000000	      0.00000000	     -8.17886612	      8.74146377	      9.42902873	     13.22428319	     89.95437384	      0.00000000	      0.00000000
      0.01000000	     15.32795415	     -0.20363361	     -4.50201523	     -0.74462533	      0.91770402	      0.99025883	    -28.08960412	     -1.68494920	     -6.98575653	    -16.72867909	     -0.29197053	     15.86062620	     -6.56268343	     -3.96441467	     11.38622841	      1.16150569	     19.19838349	    -21.07842748	     -0.36788796	      6.95759432	     -0.71307136	     -7.92326929	    -23.10486021	     -3.06999481	      5.61394046	     -0.48901890	    -19.16369611	     -3.03806051	     62.70436985	     89.95437384	      0.00000000	      0.00000000	     -8.84143501	      8.72770217	      9.72828215	     12.81187444	     89.95437384	      0.00000000	      0.00000000
      0.02000000	     15.18802269	     -0.13008535	     -4.77790259	     -0.73073219	      0.91501851	      0.99063355	    -28.44983877	     -2.17032130	     -7.80211673	    -17.63809819	     -0.30784289	     16.15955694	     -4.98639444	     -4.27997179	     11.97323938	      1.30930742	     20.50920149	    -19.44416879	     -0.33936477	      6.70407815	     -2.72532390	     -7.60272508	    -22.97743081	     -3.23996824	      5.88707491	     -0.00176169	    -19.35262705	     -2.76117011	     63.29044543	     89.95437384	      0.00000000	      0.00000000	     -9.47395771	      8.61079205	     10.69384098	     12.45320371	     89.95437384	      0.00000000	      0.00000000
      0.03000000	     14.93419442	     -0.30753322	     -5.09125151	     -0.71650102	      0.91232291	      0.99123583	    -28.68371791	     -2.37844143	     -8.15320134	    -18.58268267	     -0.32432900	     16.10441912	     -3.95338212	     -5.39143252	     12.88125825	      2.08951866	     22.88905834	    -18.77171961	     -0.32762831	      6.27288991	     -6.18054863	     -8.96881166	    -22.70821893	     -3.17429478	      6.36628037	      0.29390235	    -19.58280864	     -2.48896078	     63.89228403	     89.95437384	      0.00000000	      0.00000000	     -9.98647542	      8.47523995	     11.47161655	     11.91051901	     89.95437384	      0.00000000	      0.00000000
      0.04000000	     14.61914577	     -0.40159692	     -5.33716624	     -0.70232773	      0.91004704	      0.99151220	    -28.79635127	     -2.57175735	     -8.20117486	    -19.56688537	     -0.34150657	     15.52372393	     -4.04149682	     -5.41518223	     13.58135516	      2.33683916	     23.45688237	    -17.79275111	     -0.31054209	      6.60487448	     -6.61900684	     -9.02490100	    -22.37406269	     -3.14654063	      6.74419466	      0.60659167	    -19.80710537	     -2.14853014	     64.27384380	     89.95437384	      0.00000000	      0.00000000	    -10.48034484	      8.41594296	     11.47946137	     11.46986764	     89.95437384	      0.00000000	      0.00000000
      0.05000000	     14.49648929	     -0.16975797	     -5.84172907	     -0.68747838	      0.90832326	      0.99165490	    -29.02071538	     -3.30344159	     -8.18241764	    -20.67876378	     -0.36091251	     15.07815912	     -3.48170937	     -6.16243308	     14.04205064	      2.48935024	     25.40599866	    -17.40482242	     -0.30377146	      6.17757027	     -8.08029397	     -9.60654111	    -22.18991996	     -3.55722271	      7.15379250	      0.76622576	    -19.88062325	     -2.03128885	     64.62602922	     89.95437384	      0.00000000	      0.00000000	    -10.94771042	      8.26203489	     12.24619551	     10.95148501	     89.95437384	      0.00000000	      0.00000000
      0.06000000	     14.23569915	     -0.12315498	     -6.17536353	     -0.67245324	      0.90690437	      0.99179931	    -29.08960926	     -3.68650676	     -7.94379904	    -21.80863490	     -0.38063248	     14.15569223	     -3.58617328	     -6.13190378	     14.52114727	      2.64195182	     25.90842750	    -17.22235220	     -0.30058675	      6.58654595	     -7.80756394	     -9.52972556	    -21.83406813	     -3.72309625	      7.53824456	      0.83126117	    -19.95621959	     -1.81849887	     64.78898405	     89.95437384	      0.00000000	      0.00000000	    -11.36496248	      8.21345947	     12.26251522	     10.49416840	     89.95437384	      0.00000000	      0.00000000
      0.07000000	     14.06466907	      0.01194872	     -6.74313202	     -0.65709102	      0.90604506	      0.99209452	    -29.13954423	     -4.25541119	     -7.39047080	    -23.03006361	     -0.40195044	     13.02179025	     -3.91394387	     -6.08816398	     14.66864070	      2.71205960	     26.34938761	    -17.16155691	     -0.29952567	      6.89476265	     -7.33344404	     -9.40944844	    -21.53096492	     -4.06232881	      8.06334152	      0.80826185	    -19.95035732	     -1.69429937	     64.86320823	     89.95437384	      0.00000000	      0.00000000	    -11.72603959	      8.11872277	     12.46624529	     10.01189568	     89.95437384	      0.00000000	      0.00000000
      0.08000000	     13.89523040	      0.08458125	     -7.12722772	     -0.64113916	      0.90556764	      0.99230127	    -29.15028550	     -4.66675904	     -6.98839614	    -24.32653625	     -0.42457815	     11.48538735	     -4.14662258	     -5.86869178	     14.69277226	      2.77535905	     26.09464980	    -17.37948507	     -0.30332924	      7.27543310	     -6.80704924	     -9.22707679	    -21.16763962	     -4.29891485	      8.36979938	      0.72012745	    -19.83304804	     -1.53727869	     64.74537271	     89.95437384	      0.00000000	      0.00000000	    -12.18515346	      8.06198866	     12.43857322	      9.66067576	     89.95437384	      0.00000000	      0.00000000
      0.09000000	     13.81043469	      0.18875479	     -7.62225451	     -0.62489610	      0.90564808	      0.99263563	    -29.18135679	     -5.01748888	     -5.96540018	    -25.67387493	     -0.44809365	      9.52425543	     -5.92508349	     -5.44062632	     14.38851969	      2.64026135	     25.10539743	    -17.56174805	     -0.30651033	      7.75344448	     -5.00470477	     -8.90954503	    -20.88433578	     -4.62450924	      8.76448209	      0.48682836	    -19.67326628	     -1.44232823	     64.61247508	     89.95437384	      0.00000000	      0.00000000	    -12.49690757	      7.97169949	     13.06287847	      9.28843313	     89.95437384	      0.00000000	      0.00000000
      0.10000000	     13.73292725	      0.21863725	     -7.89791763	     -0.60803684	      0.90581561	      0.99268274	    -29.09806916	     -5.33631815	     -5.60062820	    -27.34078094	     -0.47718665	      7.78991777	     -5.85911355	     -5.12787042	     14.17653021	      2.66719705	     23.99307234	    -18.45335677	     -0.32207183	      7.84038778	     -4.58791911	     -8.67073996	    -20.55322111	     -4.80009394	      8.87827317	      0.22863303	    -19.45094152	     -1.28553468	     64.32467597	     89.95437384	      0.00000000	      0.00000000	    -13.08865967	      7.92635739	     12.99295615	      9.36547074	     89.95437384	      0.00000000	      0.00000000
      0.11000000	     13.78916612	      0.14320564	     -8.30934524	     -0.59062529	      0.90663347	      0.99298752	    -29.08488188	     -5.37552938	     -4.61057106	    -28.91398875	     -0.50464430	      3.98309492	     -9.33047362	     -3.71579664	     13.33512280	      2.40552072	     21.77310248	    -18.73653673	     -0.32701426	      8.75992290	     -1.17978287	     -8.23523987	    -20.30914022	     -4.93681087	      9.16172219	     -0.22578482	    -19.30331068	     -0.98993404	     64.00422084	     89.95437384	      0.00000000	      0.00000000	    -13.36557492	      7.81295797	     13.69905741	      8.97869625	     89.95437384	      0.00000000	      0.00000000
      0.12000000	     13.98766061	      0.20366463	     -8.74784851	     -0.57249445	      0.90746874	      0.99288074	    -28.89799500	     -5.99419127	     -4.90065786	    -31.12562951	     -0.54324472	      0.52944166	     -9.73305635	     -2.93415782	     12.71879542	      2.37085041	     22.10223539	    -20.12751493	     -0.35129141	      7.58184317	      0.75222783	     -7.78184728	    -20.10494955	     -5.17557148	      9.33359912	     -0.76152282	    -19.19355192	     -0.61035976	     63.64390727	     89.95437384	      0.00000000	      0.00000000	    -13.92185963	      7.69453415	     13.76049004	      9.04390311	     89.95437384	      0.00000000	      0.00000000
      0.13000000	     14.35244495	      0.42547559	     -9.21536898	     -0.55462158	      0.90882109	      0.99248551	    -28.53353928	     -6.87773922	     -5.42453554	    -33.81694069	     -0.59021696	     -3.77480072	    -11.01961301	     -1.91874294	     11.94812307	      2.16836561	     22.90804809	    -21.31801747	     -0.37206959	      5.70983132	      2.65456307	     -7.28299258	    -20.11575218	     -5.60796357	      9.36959589	     -1.18372753	    -19.01439485	     -0.21589113	     63.07533102	     89.95437384	      0.00000000	      0.00000000	    -14.35524287	      7.54326836	     13.83050389	      9.14825269	     89.95437384	      0.00000000	      0.00000000
      0.14000000	     14.89906809	      0.89461797	     -9.71422884	     -0.53716813	      0.91083813	      0.99226535	    -28.17657686	     -7.64961449	     -4.90604467	    -36.71794059	     -0.64084896	     -6.47633319	    -13.48851905	     13.20718296	     10.71507559	      1.34346089	     22.23681811	    -21.62933162	     -0.37750305	      5.18522648	      4.69760098	     -8.15642337	    -20.35859415	     -6.40084824	      9.28705253	     -1.55036290	    -18.68663823	      0.12142766	     62.35093075	     89.95437384	      0.00000000	      0.00000000	    -14.73474308	      7.46577140	     13.79531882	      9.43141997	     89.95437384	      0.00000000	      0.00000000
      0.15000000	     15.25790662	      1.38885971	    -10.00067936	     -0.51988795	      0.91235453	      0.99144477	    -27.34613717	     -8.79826455	     -5.61689529	    -39.87741552	     -0.69599220	     -9.79473814	    -14.26909922	     13.58695562	      9.99927968	      0.77887135	     22.28850723	    -22.79797101	     -0.39789966	      4.34548536	      4.94260069	     -7.94520276	    -20.44890674	     -7.06495612	      8.96559533	     -1.95819636	    -18.45427835	      0.54719461	     61.63014792	     89.95437384	      0.00000000	      0.00000000	    -14.93782423	      7.38779955	     13.72305027	      9.64145632	     89.95437384	      0.00000000	      0.00000000
      0.16000000	     15.59503368	      2.17722207	    -10.32019066	     -0.50310368	      0.91386868	      0.99051484	    -26.19445196	    -10.16530797	     -6.09772220	    -43.17957616	     -0.75362577	    -13.78778411	    -16.31315799	     15.18559985	      9.12151431	     -0.35003023	     21.69271268	    -23.50333702	     -0.41021062	      3.12166438	      5.41733748	     -7.74799314	    -20.54377376	     -8.04263275	      8.55847657	     -2.32129915	    -18.07838348	      0.80968986	     60.72076501	     89.95437384	      0.00000000	      0.00000000	    -15.23681291	      7.39096285	     12.93140069	     10.20638102	     89.95437384	      0.00000000	      0.00000000
